<mxfile host="app.diagrams.net" modified="2024-04-29T22:22:30.156Z" agent="Mozilla/5.0 (Windows NT 10.0; Win64; x64) AppleWebKit/537.36 (KHTML, like Gecko) Chrome/124.0.0.0 Safari/537.36" etag="sS8DylzFoMOf9oiOIVBs" version="24.3.1" type="device">
  <diagram name="Page-1" id="6133507b-19e7-1e82-6fc7-422aa6c4b21f">
    <mxGraphModel dx="2049" dy="1190" grid="1" gridSize="10" guides="1" tooltips="1" connect="1" arrows="1" fold="1" page="1" pageScale="1" pageWidth="1100" pageHeight="850" background="none" math="0" shadow="0">
      <root>
        <mxCell id="0" />
        <mxCell id="1" parent="0" />
        <mxCell id="RzVWzA5RJXwatOFOWpjH-5" style="edgeStyle=orthogonalEdgeStyle;rounded=0;orthogonalLoop=1;jettySize=auto;html=1;exitX=0.182;exitY=-0.047;exitDx=0;exitDy=0;exitPerimeter=0;entryX=0.527;entryY=1.038;entryDx=0;entryDy=0;entryPerimeter=0;" parent="1" source="mTxHH8h6KFMHXEdceu4_-1" target="42U58WoRcIpHFrWl6DUU-4" edge="1">
          <mxGeometry relative="1" as="geometry" />
        </mxCell>
        <mxCell id="42U58WoRcIpHFrWl6DUU-2" value="Transaction csv file" style="swimlane;fontStyle=0;childLayout=stackLayout;horizontal=1;startSize=26;fillColor=none;horizontalStack=0;resizeParent=1;resizeParentMax=0;resizeLast=0;collapsible=1;marginBottom=0;whiteSpace=wrap;html=1;" parent="1" vertex="1">
          <mxGeometry x="630" y="508" width="330" height="78" as="geometry" />
        </mxCell>
        <mxCell id="42U58WoRcIpHFrWl6DUU-3" value="Date|time|description|vendor|amount" style="text;strokeColor=none;fillColor=none;align=left;verticalAlign=top;spacingLeft=4;spacingRight=4;overflow=hidden;rotatable=0;points=[[0,0.5],[1,0.5]];portConstraint=eastwest;whiteSpace=wrap;html=1;" parent="42U58WoRcIpHFrWl6DUU-2" vertex="1">
          <mxGeometry y="26" width="330" height="26" as="geometry" />
        </mxCell>
        <mxCell id="42U58WoRcIpHFrWl6DUU-4" value="2024-04-15|12:04 pm|key board|Amazon|-$90.00" style="text;strokeColor=none;fillColor=none;align=left;verticalAlign=top;spacingLeft=4;spacingRight=4;overflow=hidden;rotatable=0;points=[[0,0.5],[1,0.5]];portConstraint=eastwest;whiteSpace=wrap;html=1;" parent="42U58WoRcIpHFrWl6DUU-2" vertex="1">
          <mxGeometry y="52" width="330" height="26" as="geometry" />
        </mxCell>
        <mxCell id="RzVWzA5RJXwatOFOWpjH-14" style="edgeStyle=orthogonalEdgeStyle;rounded=0;orthogonalLoop=1;jettySize=auto;html=1;entryX=0.5;entryY=0;entryDx=0;entryDy=0;" parent="1" source="42U58WoRcIpHFrWl6DUU-12" target="RzVWzA5RJXwatOFOWpjH-10" edge="1">
          <mxGeometry relative="1" as="geometry" />
        </mxCell>
        <mxCell id="42U58WoRcIpHFrWl6DUU-12" value="Error file" style="swimlane;fontStyle=0;childLayout=stackLayout;horizontal=1;startSize=26;fillColor=none;horizontalStack=0;resizeParent=1;resizeParentMax=0;resizeLast=0;collapsible=1;marginBottom=0;whiteSpace=wrap;html=1;" parent="1" vertex="1">
          <mxGeometry x="1580" y="530" width="330" height="80" as="geometry" />
        </mxCell>
        <mxCell id="42U58WoRcIpHFrWl6DUU-13" value="Date|time|Error type|&lt;div&gt;&lt;br&gt;&lt;/div&gt;&lt;div&gt;2024-04-27 | 12:09 pm | Input exception&lt;/div&gt;" style="text;strokeColor=none;fillColor=none;align=left;verticalAlign=top;spacingLeft=4;spacingRight=4;overflow=hidden;rotatable=0;points=[[0,0.5],[1,0.5]];portConstraint=eastwest;whiteSpace=wrap;html=1;" parent="42U58WoRcIpHFrWl6DUU-12" vertex="1">
          <mxGeometry y="26" width="330" height="54" as="geometry" />
        </mxCell>
        <mxCell id="42U58WoRcIpHFrWl6DUU-14" value="Home screen" style="swimlane;fontStyle=0;childLayout=stackLayout;horizontal=1;startSize=26;fillColor=none;horizontalStack=0;resizeParent=1;resizeParentMax=0;resizeLast=0;collapsible=1;marginBottom=0;whiteSpace=wrap;html=1;" parent="1" vertex="1">
          <mxGeometry x="980" y="20" width="320" height="138" as="geometry" />
        </mxCell>
        <mxCell id="42U58WoRcIpHFrWl6DUU-15" value="D) deposit" style="text;strokeColor=none;fillColor=none;align=left;verticalAlign=top;spacingLeft=4;spacingRight=4;overflow=hidden;rotatable=0;points=[[0,0.5],[1,0.5]];portConstraint=eastwest;whiteSpace=wrap;html=1;" parent="42U58WoRcIpHFrWl6DUU-14" vertex="1">
          <mxGeometry y="26" width="320" height="26" as="geometry" />
        </mxCell>
        <mxCell id="42U58WoRcIpHFrWl6DUU-16" value="P) Make a payment" style="text;strokeColor=none;fillColor=none;align=left;verticalAlign=top;spacingLeft=4;spacingRight=4;overflow=hidden;rotatable=0;points=[[0,0.5],[1,0.5]];portConstraint=eastwest;whiteSpace=wrap;html=1;" parent="42U58WoRcIpHFrWl6DUU-14" vertex="1">
          <mxGeometry y="52" width="320" height="26" as="geometry" />
        </mxCell>
        <mxCell id="42U58WoRcIpHFrWl6DUU-17" value="L) display ledger screen&lt;div&gt;&lt;br&gt;&lt;div&gt;E) Exit the application&lt;/div&gt;&lt;/div&gt;" style="text;strokeColor=none;fillColor=none;align=left;verticalAlign=top;spacingLeft=4;spacingRight=4;overflow=hidden;rotatable=0;points=[[0,0.5],[1,0.5]];portConstraint=eastwest;whiteSpace=wrap;html=1;" parent="42U58WoRcIpHFrWl6DUU-14" vertex="1">
          <mxGeometry y="78" width="320" height="60" as="geometry" />
        </mxCell>
        <mxCell id="42U58WoRcIpHFrWl6DUU-21" value="Ledger screen" style="swimlane;fontStyle=0;childLayout=stackLayout;horizontal=1;startSize=26;fillColor=none;horizontalStack=0;resizeParent=1;resizeParentMax=0;resizeLast=0;collapsible=1;marginBottom=0;whiteSpace=wrap;html=1;" parent="1" vertex="1">
          <mxGeometry x="580" y="20" width="340" height="160" as="geometry">
            <mxRectangle x="50" y="170" width="120" height="30" as="alternateBounds" />
          </mxGeometry>
        </mxCell>
        <mxCell id="42U58WoRcIpHFrWl6DUU-22" value="A) all - display all entries" style="text;strokeColor=none;fillColor=none;align=left;verticalAlign=top;spacingLeft=4;spacingRight=4;overflow=hidden;rotatable=0;points=[[0,0.5],[1,0.5]];portConstraint=eastwest;whiteSpace=wrap;html=1;" parent="42U58WoRcIpHFrWl6DUU-21" vertex="1">
          <mxGeometry y="26" width="340" height="26" as="geometry" />
        </mxCell>
        <mxCell id="42U58WoRcIpHFrWl6DUU-23" value="D) deposits - display deposits" style="text;strokeColor=none;fillColor=none;align=left;verticalAlign=top;spacingLeft=4;spacingRight=4;overflow=hidden;rotatable=0;points=[[0,0.5],[1,0.5]];portConstraint=eastwest;whiteSpace=wrap;html=1;" parent="42U58WoRcIpHFrWl6DUU-21" vertex="1">
          <mxGeometry y="52" width="340" height="26" as="geometry" />
        </mxCell>
        <mxCell id="42U58WoRcIpHFrWl6DUU-24" value="&lt;div&gt;P) display all payments&lt;/div&gt;&lt;div&gt;&lt;br&gt;&lt;div&gt;R) reports - reports screen(Allows user to run custom search)&lt;/div&gt;&lt;/div&gt;&lt;div&gt;&lt;br&gt;&lt;/div&gt;&lt;div&gt;H) Go back to home screen&lt;/div&gt;&lt;div&gt;&lt;br&gt;&lt;/div&gt;&lt;div&gt;&lt;br&gt;&lt;/div&gt;" style="text;strokeColor=none;fillColor=none;align=left;verticalAlign=top;spacingLeft=4;spacingRight=4;overflow=hidden;rotatable=0;points=[[0,0.5],[1,0.5]];portConstraint=eastwest;whiteSpace=wrap;html=1;" parent="42U58WoRcIpHFrWl6DUU-21" vertex="1">
          <mxGeometry y="78" width="340" height="82" as="geometry" />
        </mxCell>
        <mxCell id="42U58WoRcIpHFrWl6DUU-31" value="" style="endArrow=classic;startArrow=classic;html=1;rounded=0;entryX=0.529;entryY=1.024;entryDx=0;entryDy=0;entryPerimeter=0;" parent="1" target="42U58WoRcIpHFrWl6DUU-24" edge="1">
          <mxGeometry width="50" height="50" relative="1" as="geometry">
            <mxPoint x="760" y="300" as="sourcePoint" />
            <mxPoint x="760" y="325" as="targetPoint" />
          </mxGeometry>
        </mxCell>
        <mxCell id="42U58WoRcIpHFrWl6DUU-32" value="Reports screen" style="swimlane;fontStyle=0;childLayout=stackLayout;horizontal=1;startSize=26;fillColor=none;horizontalStack=0;resizeParent=1;resizeParentMax=0;resizeLast=0;collapsible=1;marginBottom=0;whiteSpace=wrap;html=1;" parent="1" vertex="1">
          <mxGeometry x="570" y="300" width="460" height="160" as="geometry" />
        </mxCell>
        <mxCell id="42U58WoRcIpHFrWl6DUU-33" value="1) Month to date" style="text;strokeColor=none;fillColor=none;align=left;verticalAlign=top;spacingLeft=4;spacingRight=4;overflow=hidden;rotatable=0;points=[[0,0.5],[1,0.5]];portConstraint=eastwest;whiteSpace=wrap;html=1;" parent="42U58WoRcIpHFrWl6DUU-32" vertex="1">
          <mxGeometry y="26" width="460" height="26" as="geometry" />
        </mxCell>
        <mxCell id="42U58WoRcIpHFrWl6DUU-34" value="2) previous month" style="text;strokeColor=none;fillColor=none;align=left;verticalAlign=top;spacingLeft=4;spacingRight=4;overflow=hidden;rotatable=0;points=[[0,0.5],[1,0.5]];portConstraint=eastwest;whiteSpace=wrap;html=1;" parent="42U58WoRcIpHFrWl6DUU-32" vertex="1">
          <mxGeometry y="52" width="460" height="26" as="geometry" />
        </mxCell>
        <mxCell id="42U58WoRcIpHFrWl6DUU-35" value="&lt;div&gt;3) Year to date&lt;/div&gt;&lt;div&gt;&lt;br&gt;&lt;/div&gt;&lt;div&gt;&lt;div&gt;4) Previous year&lt;/div&gt;&lt;/div&gt;&lt;div&gt;5) Search by vendor&lt;/div&gt;&lt;div&gt;0) Back to report&#39;s screen&lt;/div&gt;&lt;div&gt;&lt;br&gt;&lt;/div&gt;" style="text;strokeColor=none;fillColor=none;align=left;verticalAlign=top;spacingLeft=4;spacingRight=4;overflow=hidden;rotatable=0;points=[[0,0.5],[1,0.5]];portConstraint=eastwest;whiteSpace=wrap;html=1;" parent="42U58WoRcIpHFrWl6DUU-32" vertex="1">
          <mxGeometry y="78" width="460" height="82" as="geometry" />
        </mxCell>
        <mxCell id="42U58WoRcIpHFrWl6DUU-36" value="" style="endArrow=classic;startArrow=classic;html=1;rounded=0;entryX=0.003;entryY=0.025;entryDx=0;entryDy=0;entryPerimeter=0;exitX=1.015;exitY=0.061;exitDx=0;exitDy=0;exitPerimeter=0;" parent="1" source="42U58WoRcIpHFrWl6DUU-24" target="42U58WoRcIpHFrWl6DUU-17" edge="1">
          <mxGeometry width="50" height="50" relative="1" as="geometry">
            <mxPoint x="920" y="230" as="sourcePoint" />
            <mxPoint x="970" y="180" as="targetPoint" />
          </mxGeometry>
        </mxCell>
        <mxCell id="mTxHH8h6KFMHXEdceu4_-1" value="transaction&#39;s class" style="swimlane;fontStyle=1;align=center;verticalAlign=top;childLayout=stackLayout;horizontal=1;startSize=26;horizontalStack=0;resizeParent=1;resizeParentMax=0;resizeLast=0;collapsible=1;marginBottom=0;whiteSpace=wrap;html=1;" parent="1" vertex="1">
          <mxGeometry x="700" y="658" width="220" height="86" as="geometry" />
        </mxCell>
        <mxCell id="mTxHH8h6KFMHXEdceu4_-2" value="+addDeposit():void" style="text;strokeColor=none;fillColor=none;align=left;verticalAlign=top;spacingLeft=4;spacingRight=4;overflow=hidden;rotatable=0;points=[[0,0.5],[1,0.5]];portConstraint=eastwest;whiteSpace=wrap;html=1;" parent="mTxHH8h6KFMHXEdceu4_-1" vertex="1">
          <mxGeometry y="26" width="220" height="26" as="geometry" />
        </mxCell>
        <mxCell id="mTxHH8h6KFMHXEdceu4_-3" value="" style="line;strokeWidth=1;fillColor=none;align=left;verticalAlign=middle;spacingTop=-1;spacingLeft=3;spacingRight=3;rotatable=0;labelPosition=right;points=[];portConstraint=eastwest;strokeColor=inherit;" parent="mTxHH8h6KFMHXEdceu4_-1" vertex="1">
          <mxGeometry y="52" width="220" height="8" as="geometry" />
        </mxCell>
        <mxCell id="mTxHH8h6KFMHXEdceu4_-4" value="+makePayMent():void" style="text;strokeColor=none;fillColor=none;align=left;verticalAlign=top;spacingLeft=4;spacingRight=4;overflow=hidden;rotatable=0;points=[[0,0.5],[1,0.5]];portConstraint=eastwest;whiteSpace=wrap;html=1;" parent="mTxHH8h6KFMHXEdceu4_-1" vertex="1">
          <mxGeometry y="60" width="220" height="26" as="geometry" />
        </mxCell>
        <mxCell id="RzVWzA5RJXwatOFOWpjH-1" value="Action&#39;s class&lt;div&gt;&lt;br&gt;&lt;/div&gt;" style="swimlane;fontStyle=1;align=center;verticalAlign=top;childLayout=stackLayout;horizontal=1;startSize=26;horizontalStack=0;resizeParent=1;resizeParentMax=0;resizeLast=0;collapsible=1;marginBottom=0;whiteSpace=wrap;html=1;" parent="1" vertex="1">
          <mxGeometry x="1220" y="690" width="230" height="86" as="geometry" />
        </mxCell>
        <mxCell id="RzVWzA5RJXwatOFOWpjH-2" value="+ logLunch:void" style="text;strokeColor=none;fillColor=none;align=left;verticalAlign=top;spacingLeft=4;spacingRight=4;overflow=hidden;rotatable=0;points=[[0,0.5],[1,0.5]];portConstraint=eastwest;whiteSpace=wrap;html=1;" parent="RzVWzA5RJXwatOFOWpjH-1" vertex="1">
          <mxGeometry y="26" width="230" height="26" as="geometry" />
        </mxCell>
        <mxCell id="RzVWzA5RJXwatOFOWpjH-3" value="" style="line;strokeWidth=1;fillColor=none;align=left;verticalAlign=middle;spacingTop=-1;spacingLeft=3;spacingRight=3;rotatable=0;labelPosition=right;points=[];portConstraint=eastwest;strokeColor=inherit;" parent="RzVWzA5RJXwatOFOWpjH-1" vertex="1">
          <mxGeometry y="52" width="230" height="8" as="geometry" />
        </mxCell>
        <mxCell id="RzVWzA5RJXwatOFOWpjH-4" value="+ logExit():void" style="text;strokeColor=none;fillColor=none;align=left;verticalAlign=top;spacingLeft=4;spacingRight=4;overflow=hidden;rotatable=0;points=[[0,0.5],[1,0.5]];portConstraint=eastwest;whiteSpace=wrap;html=1;" parent="RzVWzA5RJXwatOFOWpjH-1" vertex="1">
          <mxGeometry y="60" width="230" height="26" as="geometry" />
        </mxCell>
        <mxCell id="RzVWzA5RJXwatOFOWpjH-9" style="edgeStyle=orthogonalEdgeStyle;rounded=0;orthogonalLoop=1;jettySize=auto;html=1;entryX=0.5;entryY=0;entryDx=0;entryDy=0;" parent="1" source="42U58WoRcIpHFrWl6DUU-7" target="RzVWzA5RJXwatOFOWpjH-1" edge="1">
          <mxGeometry relative="1" as="geometry" />
        </mxCell>
        <mxCell id="42U58WoRcIpHFrWl6DUU-7" value="action file" style="swimlane;fontStyle=0;childLayout=stackLayout;horizontal=1;startSize=26;fillColor=none;horizontalStack=0;resizeParent=1;resizeParentMax=0;resizeLast=0;collapsible=1;marginBottom=0;whiteSpace=wrap;html=1;" parent="1" vertex="1">
          <mxGeometry x="1200" y="530" width="330" height="80" as="geometry" />
        </mxCell>
        <mxCell id="42U58WoRcIpHFrWl6DUU-8" value="Date|time|action|&lt;div&gt;&lt;br&gt;&lt;/div&gt;&lt;div&gt;2024-04-27 | 5:45 pm | Application lunched&lt;/div&gt;" style="text;strokeColor=none;fillColor=none;align=left;verticalAlign=top;spacingLeft=4;spacingRight=4;overflow=hidden;rotatable=0;points=[[0,0.5],[1,0.5]];portConstraint=eastwest;whiteSpace=wrap;html=1;" parent="42U58WoRcIpHFrWl6DUU-7" vertex="1">
          <mxGeometry y="26" width="330" height="54" as="geometry" />
        </mxCell>
        <mxCell id="RzVWzA5RJXwatOFOWpjH-10" value="logError class" style="swimlane;fontStyle=1;align=center;verticalAlign=top;childLayout=stackLayout;horizontal=1;startSize=26;horizontalStack=0;resizeParent=1;resizeParentMax=0;resizeLast=0;collapsible=1;marginBottom=0;whiteSpace=wrap;html=1;" parent="1" vertex="1">
          <mxGeometry x="1650" y="690" width="160" height="60" as="geometry" />
        </mxCell>
        <mxCell id="RzVWzA5RJXwatOFOWpjH-11" value="logError():void" style="text;strokeColor=none;fillColor=none;align=left;verticalAlign=top;spacingLeft=4;spacingRight=4;overflow=hidden;rotatable=0;points=[[0,0.5],[1,0.5]];portConstraint=eastwest;whiteSpace=wrap;html=1;" parent="RzVWzA5RJXwatOFOWpjH-10" vertex="1">
          <mxGeometry y="26" width="160" height="26" as="geometry" />
        </mxCell>
        <mxCell id="RzVWzA5RJXwatOFOWpjH-12" value="" style="line;strokeWidth=1;fillColor=none;align=left;verticalAlign=middle;spacingTop=-1;spacingLeft=3;spacingRight=3;rotatable=0;labelPosition=right;points=[];portConstraint=eastwest;strokeColor=inherit;" parent="RzVWzA5RJXwatOFOWpjH-10" vertex="1">
          <mxGeometry y="52" width="160" height="8" as="geometry" />
        </mxCell>
        <mxCell id="ELvOsvrS8TENAGzxROJC-5" value="loadEntry class" style="swimlane;fontStyle=0;childLayout=stackLayout;horizontal=1;startSize=26;fillColor=none;horizontalStack=0;resizeParent=1;resizeParentMax=0;resizeLast=0;collapsible=1;marginBottom=0;whiteSpace=wrap;html=1;" vertex="1" parent="1">
          <mxGeometry x="270" y="658" width="190" height="104" as="geometry" />
        </mxCell>
        <mxCell id="ELvOsvrS8TENAGzxROJC-6" value="+ loadEntries&lt;span style=&quot;background-color: initial;&quot;&gt;: arrayList&lt;/span&gt;" style="text;strokeColor=none;fillColor=none;align=left;verticalAlign=top;spacingLeft=4;spacingRight=4;overflow=hidden;rotatable=0;points=[[0,0.5],[1,0.5]];portConstraint=eastwest;whiteSpace=wrap;html=1;" vertex="1" parent="ELvOsvrS8TENAGzxROJC-5">
          <mxGeometry y="26" width="190" height="26" as="geometry" />
        </mxCell>
        <mxCell id="ELvOsvrS8TENAGzxROJC-7" value="+ loadDeposits: arrayList" style="text;strokeColor=none;fillColor=none;align=left;verticalAlign=top;spacingLeft=4;spacingRight=4;overflow=hidden;rotatable=0;points=[[0,0.5],[1,0.5]];portConstraint=eastwest;whiteSpace=wrap;html=1;" vertex="1" parent="ELvOsvrS8TENAGzxROJC-5">
          <mxGeometry y="52" width="190" height="26" as="geometry" />
        </mxCell>
        <mxCell id="ELvOsvrS8TENAGzxROJC-8" value="+ loadPayments: arrayList" style="text;strokeColor=none;fillColor=none;align=left;verticalAlign=top;spacingLeft=4;spacingRight=4;overflow=hidden;rotatable=0;points=[[0,0.5],[1,0.5]];portConstraint=eastwest;whiteSpace=wrap;html=1;" vertex="1" parent="ELvOsvrS8TENAGzxROJC-5">
          <mxGeometry y="78" width="190" height="26" as="geometry" />
        </mxCell>
        <mxCell id="ELvOsvrS8TENAGzxROJC-9" style="edgeStyle=orthogonalEdgeStyle;rounded=0;orthogonalLoop=1;jettySize=auto;html=1;entryX=0.457;entryY=-0.038;entryDx=0;entryDy=0;entryPerimeter=0;" edge="1" parent="1" source="42U58WoRcIpHFrWl6DUU-3" target="ELvOsvrS8TENAGzxROJC-5">
          <mxGeometry relative="1" as="geometry" />
        </mxCell>
        <mxCell id="ELvOsvrS8TENAGzxROJC-11" style="edgeStyle=orthogonalEdgeStyle;rounded=0;orthogonalLoop=1;jettySize=auto;html=1;entryX=0.003;entryY=0.059;entryDx=0;entryDy=0;entryPerimeter=0;" edge="1" parent="1" source="ELvOsvrS8TENAGzxROJC-7" target="42U58WoRcIpHFrWl6DUU-24">
          <mxGeometry relative="1" as="geometry" />
        </mxCell>
      </root>
    </mxGraphModel>
  </diagram>
</mxfile>
